<svg width="84" height="96" viewBox="0 0 84 96" fill="none" xmlns="http://www.w3.org/2000/svg">
<mask id="path-1-outside-1_0_1" maskUnits="userSpaceOnUse" x="-10.5435" y="-11.1006" width="104.906" height="117.15" fill="black">
<rect fill="white" x="-10.5435" y="-11.1006" width="104.906" height="117.15"/>
<path d="M45.4262 10.5084C47.3472 13.158 48.7156 15.8714 49.5314 18.6486C50.3895 21.4326 50.8422 24.1736 50.8895 26.8717C50.9791 29.5765 50.835 32.1139 50.4572 34.4839C50.2879 35.954 50.0408 37.3684 49.7157 38.727C49.4084 40.1101 49.0901 41.4263 48.7608 42.6757C49.9973 42.6775 51.2482 42.725 52.5135 42.8182C53.7788 42.9114 55.2634 43.1264 56.9673 43.4631C60.5222 44.0298 64.2278 45.2171 68.0839 47.0252C71.9577 48.8578 75.3621 51.7981 78.297 55.8462C81.0007 59.5752 82.5476 63.619 82.9377 67.9774C83.3702 72.3425 82.7023 76.5323 80.9341 80.5466C79.2082 84.5677 76.4808 87.9301 72.7517 90.6337C69.9303 92.6793 66.8983 94.0728 63.6556 94.8144C60.4552 95.5627 57.2557 95.6928 54.0571 95.2046C50.8831 94.6986 47.8792 93.6014 45.0455 91.9129C42.2542 90.2312 39.8447 87.9919 37.8169 85.1951C35.8603 82.4964 34.4441 79.7428 33.5682 76.9344C32.7346 74.1326 32.2608 71.3882 32.1467 68.7012C32.0749 66.0209 32.2033 63.5136 32.532 61.1792C32.7749 59.6556 33.0589 58.2146 33.3839 56.856C33.7335 55.4797 34.0996 54.2036 34.4823 53.0278C33.1925 52.9524 31.8303 52.8546 30.3956 52.7344C29.0034 52.621 27.5454 52.4428 26.0219 52.1999C23.701 51.7866 21.2691 51.1169 18.7262 50.1907C16.2256 49.2714 13.7734 47.98 11.3697 46.3167C9.00833 44.6601 6.86712 42.507 4.9461 39.8574C2.20687 36.0792 0.633286 31.9987 0.225354 27.6157C-0.182578 23.2328 0.488666 19.0219 2.23909 14.983C3.98951 10.9442 6.75379 7.5551 10.5319 4.81587C13.3287 2.78812 16.3151 1.40899 19.491 0.678452C22.7091 -0.0453354 25.9053 -0.154247 29.0793 0.351717C32.2711 0.882213 35.2716 2.0006 38.0808 3.70687C40.9322 5.4199 43.3807 7.68708 45.4262 10.5084ZM16.6152 13.2063C14.4072 14.8071 12.7778 16.7932 11.7272 19.1644C10.7189 21.5423 10.3243 24.0181 10.5433 26.5916C10.8046 29.172 11.7357 31.5661 13.3365 33.7741C15.0975 36.2029 17.2592 38.023 19.8218 39.2343C22.3843 40.4456 25.0889 41.3107 27.9354 41.8296C29.8398 42.1331 31.6096 42.3285 33.2448 42.4155C34.88 42.5026 36.4161 42.5305 37.8531 42.4992C38.2561 41.1964 38.667 39.7756 39.0859 38.2367C39.5471 36.7046 39.9028 34.9495 40.153 32.9715C40.5983 30.1783 40.6258 27.3511 40.2357 24.4899C39.8634 21.6532 38.7967 19.0205 37.0358 16.5917C35.4349 14.3837 33.4367 12.7632 31.0409 11.7304C28.6875 10.7043 26.224 10.3008 23.6505 10.5198C21.1192 10.7455 18.7741 11.641 16.6152 13.2063ZM66.6684 82.2433C68.8274 80.678 70.3987 78.7153 71.3825 76.3552C72.4086 74.0018 72.7999 71.5472 72.5563 68.9914C72.3551 66.4423 71.4719 64.0883 69.9066 61.9294C68.6971 60.2611 67.3011 58.8777 65.7187 57.7793C64.1608 56.663 62.4777 55.7872 60.6696 55.1518C58.886 54.4986 57.0631 54.0236 55.201 53.7268C52.9893 53.3091 50.9745 53.0856 49.1565 53.0562C47.3809 53.0335 46.1389 52.9982 45.4305 52.9504C44.9539 54.3065 44.5028 55.7752 44.0772 57.3564C43.6516 58.9376 43.287 60.6804 42.9834 62.5848C42.5915 65.4516 42.5728 68.291 42.9274 71.1032C43.2997 73.9399 44.393 76.6095 46.2073 79.1119C47.7726 81.2708 49.7231 82.851 52.0587 83.8526C54.4366 84.8609 56.9035 85.2433 59.4593 84.9998C62.0574 84.763 64.4604 83.8442 66.6684 82.2433Z"/>
</mask>
<path d="M45.4262 10.5084C47.3472 13.158 48.7156 15.8714 49.5314 18.6486C50.3895 21.4326 50.8422 24.1736 50.8895 26.8717C50.9791 29.5765 50.835 32.1139 50.4572 34.4839C50.2879 35.954 50.0408 37.3684 49.7157 38.727C49.4084 40.1101 49.0901 41.4263 48.7608 42.6757C49.9973 42.6775 51.2482 42.725 52.5135 42.8182C53.7788 42.9114 55.2634 43.1264 56.9673 43.4631C60.5222 44.0298 64.2278 45.2171 68.0839 47.0252C71.9577 48.8578 75.3621 51.7981 78.297 55.8462C81.0007 59.5752 82.5476 63.619 82.9377 67.9774C83.3702 72.3425 82.7023 76.5323 80.9341 80.5466C79.2082 84.5677 76.4808 87.9301 72.7517 90.6337C69.9303 92.6793 66.8983 94.0728 63.6556 94.8144C60.4552 95.5627 57.2557 95.6928 54.0571 95.2046C50.8831 94.6986 47.8792 93.6014 45.0455 91.9129C42.2542 90.2312 39.8447 87.9919 37.8169 85.1951C35.8603 82.4964 34.4441 79.7428 33.5682 76.9344C32.7346 74.1326 32.2608 71.3882 32.1467 68.7012C32.0749 66.0209 32.2033 63.5136 32.532 61.1792C32.7749 59.6556 33.0589 58.2146 33.3839 56.856C33.7335 55.4797 34.0996 54.2036 34.4823 53.0278C33.1925 52.9524 31.8303 52.8546 30.3956 52.7344C29.0034 52.621 27.5454 52.4428 26.0219 52.1999C23.701 51.7866 21.2691 51.1169 18.7262 50.1907C16.2256 49.2714 13.7734 47.98 11.3697 46.3167C9.00833 44.6601 6.86712 42.507 4.9461 39.8574C2.20687 36.0792 0.633286 31.9987 0.225354 27.6157C-0.182578 23.2328 0.488666 19.0219 2.23909 14.983C3.98951 10.9442 6.75379 7.5551 10.5319 4.81587C13.3287 2.78812 16.3151 1.40899 19.491 0.678452C22.7091 -0.0453354 25.9053 -0.154247 29.0793 0.351717C32.2711 0.882213 35.2716 2.0006 38.0808 3.70687C40.9322 5.4199 43.3807 7.68708 45.4262 10.5084ZM16.6152 13.2063C14.4072 14.8071 12.7778 16.7932 11.7272 19.1644C10.7189 21.5423 10.3243 24.0181 10.5433 26.5916C10.8046 29.172 11.7357 31.5661 13.3365 33.7741C15.0975 36.2029 17.2592 38.023 19.8218 39.2343C22.3843 40.4456 25.0889 41.3107 27.9354 41.8296C29.8398 42.1331 31.6096 42.3285 33.2448 42.4155C34.88 42.5026 36.4161 42.5305 37.8531 42.4992C38.2561 41.1964 38.667 39.7756 39.0859 38.2367C39.5471 36.7046 39.9028 34.9495 40.153 32.9715C40.5983 30.1783 40.6258 27.3511 40.2357 24.4899C39.8634 21.6532 38.7967 19.0205 37.0358 16.5917C35.4349 14.3837 33.4367 12.7632 31.0409 11.7304C28.6875 10.7043 26.224 10.3008 23.6505 10.5198C21.1192 10.7455 18.7741 11.641 16.6152 13.2063ZM66.6684 82.2433C68.8274 80.678 70.3987 78.7153 71.3825 76.3552C72.4086 74.0018 72.7999 71.5472 72.5563 68.9914C72.3551 66.4423 71.4719 64.0883 69.9066 61.9294C68.6971 60.2611 67.3011 58.8777 65.7187 57.7793C64.1608 56.663 62.4777 55.7872 60.6696 55.1518C58.886 54.4986 57.0631 54.0236 55.201 53.7268C52.9893 53.3091 50.9745 53.0856 49.1565 53.0562C47.3809 53.0335 46.1389 52.9982 45.4305 52.9504C44.9539 54.3065 44.5028 55.7752 44.0772 57.3564C43.6516 58.9376 43.287 60.6804 42.9834 62.5848C42.5915 65.4516 42.5728 68.291 42.9274 71.1032C43.2997 73.9399 44.393 76.6095 46.2073 79.1119C47.7726 81.2708 49.7231 82.851 52.0587 83.8526C54.4366 84.8609 56.9035 85.2433 59.4593 84.9998C62.0574 84.763 64.4604 83.8442 66.6684 82.2433Z" fill="white"/>
<path d="M45.4262 10.5084C47.3472 13.158 48.7156 15.8714 49.5314 18.6486C50.3895 21.4326 50.8422 24.1736 50.8895 26.8717C50.9791 29.5765 50.835 32.1139 50.4572 34.4839C50.2879 35.954 50.0408 37.3684 49.7157 38.727C49.4084 40.1101 49.0901 41.4263 48.7608 42.6757C49.9973 42.6775 51.2482 42.725 52.5135 42.8182C53.7788 42.9114 55.2634 43.1264 56.9673 43.4631C60.5222 44.0298 64.2278 45.2171 68.0839 47.0252C71.9577 48.8578 75.3621 51.7981 78.297 55.8462C81.0007 59.5752 82.5476 63.619 82.9377 67.9774C83.3702 72.3425 82.7023 76.5323 80.9341 80.5466C79.2082 84.5677 76.4808 87.9301 72.7517 90.6337C69.9303 92.6793 66.8983 94.0728 63.6556 94.8144C60.4552 95.5627 57.2557 95.6928 54.0571 95.2046C50.8831 94.6986 47.8792 93.6014 45.0455 91.9129C42.2542 90.2312 39.8447 87.9919 37.8169 85.1951C35.8603 82.4964 34.4441 79.7428 33.5682 76.9344C32.7346 74.1326 32.2608 71.3882 32.1467 68.7012C32.0749 66.0209 32.2033 63.5136 32.532 61.1792C32.7749 59.6556 33.0589 58.2146 33.3839 56.856C33.7335 55.4797 34.0996 54.2036 34.4823 53.0278C33.1925 52.9524 31.8303 52.8546 30.3956 52.7344C29.0034 52.621 27.5454 52.4428 26.0219 52.1999C23.701 51.7866 21.2691 51.1169 18.7262 50.1907C16.2256 49.2714 13.7734 47.98 11.3697 46.3167C9.00833 44.6601 6.86712 42.507 4.9461 39.8574C2.20687 36.0792 0.633286 31.9987 0.225354 27.6157C-0.182578 23.2328 0.488666 19.0219 2.23909 14.983C3.98951 10.9442 6.75379 7.5551 10.5319 4.81587C13.3287 2.78812 16.3151 1.40899 19.491 0.678452C22.7091 -0.0453354 25.9053 -0.154247 29.0793 0.351717C32.2711 0.882213 35.2716 2.0006 38.0808 3.70687C40.9322 5.4199 43.3807 7.68708 45.4262 10.5084ZM16.6152 13.2063C14.4072 14.8071 12.7778 16.7932 11.7272 19.1644C10.7189 21.5423 10.3243 24.0181 10.5433 26.5916C10.8046 29.172 11.7357 31.5661 13.3365 33.7741C15.0975 36.2029 17.2592 38.023 19.8218 39.2343C22.3843 40.4456 25.0889 41.3107 27.9354 41.8296C29.8398 42.1331 31.6096 42.3285 33.2448 42.4155C34.88 42.5026 36.4161 42.5305 37.8531 42.4992C38.2561 41.1964 38.667 39.7756 39.0859 38.2367C39.5471 36.7046 39.9028 34.9495 40.153 32.9715C40.5983 30.1783 40.6258 27.3511 40.2357 24.4899C39.8634 21.6532 38.7967 19.0205 37.0358 16.5917C35.4349 14.3837 33.4367 12.7632 31.0409 11.7304C28.6875 10.7043 26.224 10.3008 23.6505 10.5198C21.1192 10.7455 18.7741 11.641 16.6152 13.2063ZM66.6684 82.2433C68.8274 80.678 70.3987 78.7153 71.3825 76.3552C72.4086 74.0018 72.7999 71.5472 72.5563 68.9914C72.3551 66.4423 71.4719 64.0883 69.9066 61.9294C68.6971 60.2611 67.3011 58.8777 65.7187 57.7793C64.1608 56.663 62.4777 55.7872 60.6696 55.1518C58.886 54.4986 57.0631 54.0236 55.201 53.7268C52.9893 53.3091 50.9745 53.0856 49.1565 53.0562C47.3809 53.0335 46.1389 52.9982 45.4305 52.9504C44.9539 54.3065 44.5028 55.7752 44.0772 57.3564C43.6516 58.9376 43.287 60.6804 42.9834 62.5848C42.5915 65.4516 42.5728 68.291 42.9274 71.1032C43.2997 73.9399 44.393 76.6095 46.2073 79.1119C47.7726 81.2708 49.7231 82.851 52.0587 83.8526C54.4366 84.8609 56.9035 85.2433 59.4593 84.9998C62.0574 84.763 64.4604 83.8442 66.6684 82.2433Z" fill="url(#paint0_linear_0_1)" fill-opacity="0.9"/>
<path d="M45.831 10.2149C45.5612 10.4106 45.2913 10.6063 45.0214 10.8019C46.7912 13.2312 48.2204 15.9151 49.0668 18.7851C49.5965 20.4929 49.9873 22.236 50.2095 23.9998C50.33 24.9557 50.4011 25.9174 50.4196 26.8799C50.5073 29.4057 50.3968 31.9312 50.006 34.4119C50.0054 34.4159 50.0038 34.4277 50.0033 34.4316C49.8434 35.8425 49.6059 37.2436 49.2786 38.6224C48.9865 39.9471 48.6741 41.2592 48.3329 42.5629C48.2519 42.8681 48.4444 43.1172 48.7601 43.1182C50.0012 43.1179 51.2427 43.164 52.4815 43.2531C53.951 43.3611 55.4222 43.5985 56.8843 43.8833C56.8874 43.8839 56.8967 43.8856 56.8999 43.8861C60.7092 44.4875 64.4017 45.7579 67.9105 47.3949C71.9666 49.2916 75.3516 52.4365 77.9854 56.0721C80.5437 59.556 82.2039 63.7006 82.5768 68.0097C83.0192 72.2246 82.3403 76.5347 80.6227 80.4094C78.9397 84.4014 76.0797 87.8424 72.5652 90.3765C69.8836 92.3352 66.8259 93.7818 63.5886 94.5215C60.4874 95.2577 57.2507 95.4047 54.0999 94.9239C50.9571 94.4339 47.9194 93.3137 45.1824 91.6832C42.3705 90.003 39.9455 87.7045 38.0196 85.0482C36.2028 82.5536 34.7135 79.8068 33.7919 76.8646C32.9963 74.2097 32.4881 71.462 32.3664 68.6919C32.2956 66.1932 32.3932 63.6844 32.7371 61.208C32.9647 59.7651 33.24 58.3261 33.5779 56.9025C33.9012 55.6211 34.2586 54.3458 34.6656 53.0875C34.7083 52.9568 34.6308 52.8438 34.4936 52.8355C33.132 52.7582 31.7711 52.661 30.4111 52.5494C28.9518 52.4329 27.4973 52.2521 26.0499 52.0241C23.5779 51.5875 21.1498 50.8925 18.7827 50.0356C16.1869 49.0871 13.7333 47.7638 11.4555 46.1927C8.96862 44.4564 6.84081 42.2339 5.0555 39.778C2.44917 36.2282 0.733446 32.0024 0.337228 27.6053C-0.0847879 23.3319 0.604174 18.9586 2.32184 15.0189C4.05291 10.9534 6.991 7.45234 10.5715 4.87046C13.2384 2.92274 16.2786 1.46842 19.5022 0.727563C22.6325 0.0125229 25.8995 -0.120817 29.074 0.385141C30.7692 0.66344 32.4364 1.11497 34.0393 1.73532C35.4385 2.27621 36.7879 2.94458 38.0718 3.72164C40.9584 5.44126 43.4551 7.78886 45.4262 10.5084C43.4645 7.78218 40.9744 5.42403 38.0897 3.69206C36.8069 2.90964 35.4576 2.2355 34.0574 1.68871C32.4535 1.06162 30.7838 0.603221 29.0849 0.318328C25.9035 -0.199973 22.6244 -0.0777123 19.4799 0.629288C16.2397 1.36219 13.1787 2.81335 10.4924 4.76128C6.88658 7.34232 3.91423 10.8571 2.15633 14.9472C0.413542 18.9066 -0.297531 23.3161 0.113481 27.6262C0.497649 32.0653 2.21813 36.3452 4.83671 39.9367C6.6276 42.418 8.76906 44.6721 11.2831 46.4401C13.5741 48.032 16.0465 49.3772 18.6692 50.3457C21.0483 51.2162 23.4922 51.9252 25.9907 52.3753C27.4482 52.6101 28.911 52.7971 30.3806 52.9194C31.7424 53.0358 33.106 53.138 34.4711 53.2202L34.2991 52.9682C33.8846 54.2351 33.5207 55.5171 33.1905 56.8069C32.8443 58.2436 32.5621 59.6917 32.3276 61.1466C31.9708 63.653 31.8639 66.1847 31.9268 68.7071C32.0407 71.5216 32.5467 74.3086 33.3436 77.0012C34.2737 80.0069 35.7805 82.8059 37.6142 85.342C39.565 88.0526 42.0356 90.4126 44.9076 92.1419C47.6936 93.8148 50.7981 94.9727 54.0124 95.485C57.2337 95.9881 60.5519 95.8488 63.724 95.107C67.0437 94.3608 70.1886 92.8854 72.9382 90.891C76.5409 88.3136 79.504 84.7783 81.2468 80.6808C83.0219 76.7162 83.7388 72.2701 83.2983 67.9416C82.931 63.5037 81.2256 59.2073 78.6087 55.6202C75.9327 51.8993 72.4584 48.6378 68.2585 46.6561C64.7013 44.982 60.9424 43.671 57.0347 43.0401L57.0504 43.0429C55.5672 42.7489 54.0706 42.5009 52.5456 42.3833C51.287 42.2884 50.0246 42.2372 48.7614 42.2332L49.1887 42.7885C49.5378 41.4732 49.8574 40.151 50.1545 38.8244C50.4941 37.4158 50.7424 35.9797 50.9111 34.5361L50.9084 34.5558C51.3186 32.0079 51.4396 29.4245 51.3592 26.8561C51.3436 25.8667 51.2734 24.8713 51.1522 23.8827C50.9288 22.0584 50.5314 20.2586 49.9942 18.506C49.1232 15.5146 47.6461 12.7244 45.831 10.2149ZM45.0214 10.8019L45.831 10.2149C45.7722 10.1341 45.4851 10.5893 45.4262 10.5084C45.4848 10.5895 44.9629 10.7209 45.0214 10.8019ZM16.9087 13.6111C16.713 13.3412 16.5173 13.0714 16.3217 12.8015C14.9298 13.8086 13.6799 15.0358 12.6868 16.453C12.1334 17.2403 11.6592 18.0831 11.2701 18.9618C10.239 21.3677 9.81384 24.0348 10.0451 26.634C10.3041 29.322 11.3527 31.9104 12.9317 34.0676C14.6403 36.4432 16.9387 38.4379 19.6081 39.6863C22.2222 40.9239 25.0033 41.805 27.8457 42.3214C27.8479 42.3218 27.8545 42.323 27.8567 42.3233C29.6294 42.6054 31.4171 42.8183 33.2182 42.9148C34.7631 42.9969 36.3125 43.0326 37.864 42.9991C38.0609 42.9948 38.2726 42.835 38.3308 42.6469C38.7698 41.2271 39.1785 39.7997 39.5683 38.3681L39.5647 38.3809C40.0909 36.6263 40.4203 34.8322 40.6491 33.0343L40.6468 33.0502C41.1037 30.199 41.123 27.2794 40.7311 24.4224C40.3583 21.49 39.1761 18.6729 37.4406 16.2982C35.8777 14.1202 33.722 12.3266 31.2389 11.2712C28.8596 10.2222 26.198 9.79055 23.6081 10.0216C22.7072 10.1017 21.8143 10.266 20.9456 10.5159C19.279 10.9926 17.7132 11.7902 16.3217 12.8015C16.5173 13.0714 16.713 13.3412 16.9087 13.6111C18.2182 12.6597 19.6749 11.9197 21.2218 11.477C22.0283 11.245 22.8573 11.0923 23.6949 11.0178C26.1298 10.802 28.6028 11.2034 30.8411 12.1887C33.1607 13.1765 35.1564 14.8335 36.631 16.8851C38.2806 19.1446 39.3867 21.7872 39.74 24.555C40.1194 27.3226 40.1003 30.1393 39.6593 32.8928C39.6588 32.896 39.6574 32.9056 39.657 32.9088C39.4335 34.6669 39.1115 36.4117 38.6071 38.0926C38.6063 38.0952 38.6041 38.1029 38.6034 38.1054C38.216 39.5283 37.8102 40.9453 37.3755 42.3514L37.8422 41.9993C36.3211 42.0322 34.7957 41.9972 33.2714 41.9162C31.5148 41.8221 29.7597 41.6136 28.0141 41.3358L28.025 41.3377C25.2643 40.8359 22.5697 39.9819 20.0354 38.7823C17.5227 37.6057 15.3676 35.7394 13.7413 33.4806C12.2525 31.4437 11.2836 29.0441 11.0407 26.5413C10.825 24.1017 11.2209 21.6185 12.1876 19.3595C12.5479 18.5459 12.9896 17.7612 13.5051 17.0278C14.4302 15.708 15.5955 14.5614 16.9087 13.6111ZM16.3217 12.8015L16.9087 13.6111L16.3217 12.8015ZM66.375 81.8385C66.5706 82.1084 66.7663 82.3782 66.9619 82.6481C68.3565 81.6397 69.598 80.3932 70.5593 78.9502C71.0652 78.1933 71.4947 77.3861 71.844 76.5475C72.8875 74.1826 73.3113 71.5242 73.0541 68.9439C72.8615 66.3174 71.8633 63.7529 70.3114 61.6359C69.1256 59.9969 67.6781 58.528 66.0038 57.3685C64.4255 56.2358 62.6757 55.3252 60.8354 54.6801C59.0405 54.0222 57.1748 53.5346 55.2797 53.233L55.2938 53.2355C53.2794 52.8565 51.2335 52.5916 49.1646 52.5562C47.9252 52.5379 46.676 52.5243 45.4642 52.4515C45.2549 52.4374 45.0283 52.5867 44.9588 52.7846C44.4445 54.2488 43.9967 55.7326 43.5944 57.2264C43.1261 58.9683 42.7727 60.7335 42.4896 62.5061C42.4893 62.5083 42.4883 62.5149 42.488 62.5171C42.0951 65.3792 42.0679 68.2964 42.4313 71.1657C42.8118 74.1531 44.0444 76.998 45.8025 79.4054C47.3284 81.5318 49.4336 83.2859 51.8616 84.3121C54.2533 85.3377 56.9171 85.755 59.5067 85.4975C60.4676 85.4102 61.424 85.2288 62.3523 84.9521C64.0119 84.4599 65.5715 83.6584 66.9619 82.6481C66.7663 82.3782 66.5706 82.1084 66.375 81.8385C65.0648 82.7903 63.6107 83.5356 62.0669 83.9937C61.2031 84.2511 60.3133 84.42 59.4139 84.5018C56.9782 84.7426 54.5029 84.3552 52.2539 83.3923C49.9947 82.4355 48.05 80.8189 46.6121 78.8184C44.9358 76.5209 43.782 73.8476 43.4231 71.0381C43.0712 68.259 43.0973 65.4325 43.4788 62.6525L43.4772 62.6635C43.7558 60.918 44.1033 59.1851 44.56 57.4863C44.957 56.0124 45.398 54.5517 45.9022 53.1162L45.3968 53.4493C46.6654 53.5252 47.9029 53.5374 49.1502 53.5561C51.1395 53.5899 53.1345 53.8466 55.1082 54.2181C55.1111 54.2186 55.1195 54.2201 55.1223 54.2205C56.9538 54.5121 58.7558 54.983 60.4977 55.6213C62.2566 56.2381 63.9183 57.1029 65.4274 58.1857C67.008 59.2806 68.3734 60.6635 69.5018 62.2229C70.9589 64.2139 71.876 66.5774 72.0579 69.0307C72.2986 71.4619 71.9057 73.9269 70.9242 76.1553C70.5956 76.944 70.197 77.6927 69.7278 78.3946C68.8363 79.7324 67.6852 80.8907 66.375 81.8385ZM66.9619 82.6481L66.375 81.8385L66.9619 82.6481Z" fill="#4B4949" mask="url(#path-1-outside-1_0_1)"/>
<defs>
<linearGradient id="paint0_linear_0_1" x1="30.0945" y1="-17.4522" x2="121.302" y2="108.347" gradientUnits="userSpaceOnUse">
<stop stop-color="#EE4848"/>
<stop offset="0.177885" stop-color="#F8A026"/>
<stop offset="0.322115" stop-color="#90F345"/>
<stop offset="0.533654" stop-color="#4638FF"/>
<stop offset="0.735577" stop-color="#B03ADF"/>
<stop offset="0.913462" stop-color="#FF71C6"/>
</linearGradient>
</defs>
</svg>
